<svg id="er3iLDfsp7b1" xmlns="http://www.w3.org/2000/svg" xmlns:xlink="http://www.w3.org/1999/xlink" viewBox="0 0 300 100" shape-rendering="geometricPrecision" text-rendering="geometricPrecision"><g><path d="M12,19.600056v76.79994l31,.000001v-76.799942l-31,.000001" transform="matrix(.935484 0 0 1.224228-8.22581-21.015567)" fill="#fff" stroke-width="0.6"/><path d="M35,1.999998v96.000003l30,.000001C65,98.000002,65,50,65,32C65,12,50,1.999999,35,1.999999" transform="matrix(.933333 0 0 0.979167 3.33335 1.04165)" fill="#fff" stroke-width="0.6"/><path d="M32,1.999998v96.000003l31,.000001C63,98.000002,63,50,63,32C63,12,47,1.999998,32,1.999998" transform="matrix(.935484 0 0 0.979167 38.06451 1.04165)" fill="#fff" stroke-width="0.6"/></g><g transform="matrix(0 1-1 0 300-200)"><path d="M32,1.999998v96.000003l31,.000001C63,98.000002,63,50,63,32C63,12,47,1.999998,32,1.999998" transform="matrix(.935484 0 0 0.979167 238.06451 1.04164)" fill="#fff" stroke-width="0.6"/><path d="M35,1.999998v96.000003l30,.000001C65,98.000002,65,50,65,32C65,12,50,1.999999,35,1.999999" transform="matrix(-.933333 0 0-.979166 263.66665 98.958302)" fill="#fff" stroke-width="0.6"/><path d="M12,19.600056v76.79994l31,.000001v-76.799942l-31,.000001" transform="matrix(.933333 0 0 1.223959 223.866676-20.989655)" fill="#fff" stroke-width="0.6"/></g><ellipse rx="20" ry="20" transform="matrix(2.35 0 0 2.35 150 50)" fill="#fff" stroke-width="0"/></svg>
