<svg id="eyAeuDw8gRv1" xmlns="http://www.w3.org/2000/svg" xmlns:xlink="http://www.w3.org/1999/xlink" viewBox="0 0 300 100" shape-rendering="geometricPrecision" text-rendering="geometricPrecision"><g><path d="M12,19.600056v76.79994l31,.000001v-76.799942l-31,.000001" transform="matrix(1 0 0 1.250001-10-22.50009)" fill="#fff" stroke-width="0.6"/><path d="M35,1.999998v96.000003l30,.000001C65,98.000002,65,50,65,32C65,12,50,1.999999,35,1.999999" fill="#fff" stroke-width="0.6"/><path d="M32,1.999998v96.000003l31,.000001C63,98.000002,63,50,63,32C63,12,47,1.999998,32,1.999998" transform="translate(35 0)" fill="#fff" stroke-width="0.6"/></g><g transform="matrix(0 1-1 0 300-200)"><path d="M32,1.999998v96.000003l31,.000001C63,98.000002,63,50,63,32C63,12,47,1.999998,32,1.999998" transform="translate(235 0.000002)" fill="#fff" stroke-width="0.6"/><path d="M35,1.999998v96.000003l30,.000001C65,98.000002,65,50,65,32C65,12,50,1.999999,35,1.999999" transform="matrix(-1 0 0-1 267 100.000002)" fill="#fff" stroke-width="0.6"/><path d="M12,19.600056v76.79994l31,.000001v-76.799942l-31,.000001" transform="matrix(1 0 0 1.250001 222-22.500088)" fill="#fff" stroke-width="0.6"/></g><ellipse rx="20" ry="20" transform="matrix(2.4 0 0 2.4 150 50)" fill="#fff" stroke-width="0"/></svg>
