<svg id="e4ZlCpRSJnh1" xmlns="http://www.w3.org/2000/svg" xmlns:xlink="http://www.w3.org/1999/xlink" viewBox="0 0 300 300" shape-rendering="geometricPrecision" text-rendering="geometricPrecision"><path d="M60,0c60,0,120,0,180,0c30,0,60,30,60,70c0,51,0,119,0,170c0,15-7.5,30-18.75,41.25L18.75,18.75C30,7.5,45,0,60,0Z" fill="#42b9ff" stroke-width="0.6"/><path d="M60,0c60,0,120,0,180,0c30,0,60,30,60,70c0,51,0,119,0,170c0,15-7.5,30-18.75,41.25L18.75,18.75C30,7.5,45,0,60,0Z" transform="matrix(-1 0 0-1 300 300)" fill="#ff8842" stroke-width="0.6"/></svg>
